#!OML:ASF H:\ManfredETheater\Project 1\Capture day 1\Session 1\subject.ASF
:FULLY-SPECIFIED
:DEGREES
305
root 0.325552 15.7322 -21.6581 -160.75 -2.68183 171.693
lowerback 20.85 -2.25947 -6.07311
upperback -0.190381 -4.77139 -0.621327
thorax -11.5017 -1.98712 4.21188
lowerneck -20.8384 -1.28495 -1.80163
upperneck -2.81975 -0.42024 3.64241
head 2.73457 0.397011 1.52734
rclavicle -3.95581e-014 -1.69961e-014
rhumerus -45.3175 -5.6854 -85.0045
rradius 54.7629
rwrist -15.8156
rhand -30.214 -2.20047
rfingers 7.12502
rthumb -3.52415 -32.1511
lclavicle -3.95581e-014 -1.69961e-014
lhumerus -31.2268 -12.1372 94.9559
lradius 79.0614
lwrist 6.54607
lhand -20.5627 -9.07751
lfingers 7.12502
lthumb 5.79654 20.8232
rfemur -68.2666 -13.0477 17.4248
rtibia 86.4979
rfoot -23.1731 -10.8725
rtoes -35.461
lfemur -17.1324 -0.506033 -28.7446
ltibia 55.8157
lfoot -35.4355 -10.1963
ltoes -7.72936
306
root 0.34064 15.6623 -21.8371 -160.757 -2.84605 171.487
lowerback 21.2608 -2.41898 -6.26254
upperback 0.0133573 -5.08036 -0.652283
thorax -11.4554 -2.13783 4.39555
lowerneck -20.8232 -1.15613 -1.65386
upperneck -3.1674 -0.232846 3.65038
head 2.60146 0.505643 1.51564
rclavicle -2.81405e-015 -3.55328e-015
rhumerus -46.2193 -6.18748 -84.1311
rradius 53.7093
rwrist -16.5763
rhand -30.3888 -2.3413
rfingers 7.12502
rthumb -3.69295 -32.2891
lclavicle -2.81405e-015 -3.55328e-015
lhumerus -30.0579 -11.7107 94.8655
lradius 81.7056
lwrist 7.53473
lhand -20.7909 -9.31261
lfingers 7.12502
lthumb 5.57621 20.594
rfemur -70.3626 -13.1421 17.4677
rtibia 86.2766
rfoot -22.9471 -10.5587
rtoes -35.7709
lfemur -16.3887 -0.745068 -28.696
ltibia 55.8022
lfoot -35.3718 -10.8916
ltoes -8.03546
307
root 0.355241 15.5904 -22.0264 -160.711 -3.03498 171.286
lowerback 21.5731 -2.58885 -6.39138
upperback 0.179438 -5.37914 -0.683584
thorax -11.4003 -2.28581 4.53708
lowerneck -20.8068 -1.05133 -1.55422
upperneck -3.4322 -0.0790621 3.68598
head 2.49976 0.595003 1.51966
rclavicle 2.8625e-014 -1.13307e-014
rhumerus -47.3607 -6.62478 -83.2086
rradius 52.8506
rwrist -17.2483
rhand -30.5811 -2.33789
rfingers 7.12502
rthumb -3.87865 -32.2823
lclavicle 2.8625e-014 -1.13307e-014
lhumerus -28.8173 -11.3025 94.8078
lradius 84.561
lwrist 8.48997
lhand -21.0541 -9.522
lfingers 7.12502
lthumb 5.32215 20.3912
rfemur -72.4502 -13.2604 17.5335
rtibia 85.9709
rfoot -22.6857 -10.2577
rtoes -36.1232
lfemur -15.5523 -1.01851 -28.6387
ltibia 55.5852
lfoot -35.3824 -11.5595
ltoes -8.18536
308
root 0.369422 15.5175 -22.2265 -160.626 -3.24155 171.109
lowerback 21.8101 -2.75941 -6.44399
upperback 0.304694 -5.65019 -0.708807
thorax -11.3573 -2.42166 4.63099
lowerneck -20.7933 -0.977428 -1.51295
upperneck -3.60346 0.0325473 3.74761
head 2.43382 0.660443 1.54033
rclavicle 3.85145e-015 -7.70291e-015
rhumerus -48.8033 -6.95849 -82.2475
rradius 52.289
rwrist -17.7893
rhand -30.8187 -2.1247
rfingers 7.12502
rthumb -4.10809 -32.0648
lclavicle 3.85145e-015 -7.70291e-015
lhumerus -27.4992 -10.9348 94.8018
lradius 87.6286
lwrist 9.37633
lhand -21.3272 -9.68157
lfingers 7.12502
lthumb 5.05838 20.2381
rfemur -74.4941 -13.3889 17.6408
rtibia 85.5968
rfoot -22.3872 -9.97807
rtoes -36.5075
lfemur -14.5925 -1.29965 -28.554
ltibia 55.1394
lfoot -35.4719 -12.1993
ltoes -8.13817
309
root 0.38304 15.4442 -22.4378 -160.496 -3.47136 170.961
lowerback 21.9677 -2.93145 -6.41174
upperback 0.387349 -5.88969 -0.721597
thorax -11.328 -2.54307 4.67766
lowerneck -20.7852 -0.935855 -1.52834
upperneck -3.68476 0.100207 3.82651
head 2.40254 0.700951 1.57439
rclavicle 2.2413e-014 -7.45443e-015
rhumerus -50.5896 -7.13642 -81.2766
rradius 52.1394
rwrist -18.1806
rhand -31.0815 -1.72989
rfingers 7.12502
rthumb -4.36184 -31.665
lclavicle 2.2413e-014 -7.45443e-015
lhumerus -26.0887 -10.6239 94.855
lradius 90.8905
lwrist 10.1827
lhand -21.5986 -9.82048
lfingers 7.12502
lthumb 4.79635 20.1052
rfemur -76.4861 -13.5332 17.7978
rtibia 85.1797
rfoot -22.0529 -9.7024
rtoes -36.9015
lfemur -13.5089 -1.58209 -28.4341
ltibia 54.4508
lfoot -35.6336 -12.8084
ltoes -7.88109
310
root 0.397014 15.3713 -22.66 -160.345 -3.69586 170.857
lowerback 22.0843 -3.08641 -6.31477
upperback 0.430844 -6.08032 -0.713685
thorax -11.3301 -2.63963 4.69549
lowerneck -20.7871 -0.923089 -1.58853
upperneck -3.68591 0.127843 3.9077
head 2.40284 0.718389 1.61509
rclavicle -3.09607e-014 1.39149e-014
rhumerus -52.7389 -7.09637 -80.3452
rradius 52.4901
rwrist -18.4299
rhand -31.3416 -1.18542
rfingers 7.12502
rthumb -4.61296 -31.1152
lclavicle -3.09607e-014 1.39149e-014
lhumerus -24.579 -10.3891 94.971
lradius 94.3272
lwrist 10.919
lhand -21.8678 -9.94875
lfingers 7.12502
lthumb 4.5364 19.9827
rfemur -78.3909 -13.6515 18.0113
rtibia 84.7465
rfoot -21.6754 -9.42605
rtoes -37.308
lfemur -12.282 -1.82513 -28.2665
ltibia 53.5104
lfoot -35.8414 -13.3846
ltoes -7.41061
311
root 0.411335 15.2992 -22.8927 -160.149 -3.94388 170.783
lowerback 22.1475 -3.24008 -6.15299
upperback 0.427082 -6.24047 -0.680344
thorax -11.3636 -2.71916 4.69414
lowerneck -20.7924 -0.929014 -1.6816
upperneck -3.61742 0.12743 3.97931
head 2.42933 0.718298 1.65714
rclavicle 2.33075e-014 -1.78906e-014
rhumerus -55.2456 -6.80196 -79.5007
rradius 53.384
rwrist -18.5581
rhand -31.5531 -0.49488
rfingers 7.12502
rthumb -4.81717 -30.4201
lclavicle 2.33075e-014 -1.78906e-014
lhumerus -22.9774 -10.2381 95.141
lradius 97.9138
lwrist 11.6014
lhand -22.1067 -10.0726
lfingers 7.12502
lthumb 4.30574 19.8636
rfemur -80.2277 -13.7843 18.2804
rtibia 84.3614
rfoot -21.265 -9.1198
rtoes -37.7687
lfemur -10.9695 -2.06457 -28.0594
ltibia 52.3831
lfoot -36.0883 -13.9205
ltoes -6.77817
312
root 0.425913 15.229 -23.137 -159.949 -4.18581 170.744
lowerback 22.1936 -3.38155 -5.94761
upperback 0.39147 -6.36546 -0.620961
thorax -11.4297 -2.77949 4.68737
lowerneck -20.7964 -0.939169 -1.78771
upperneck -3.49947 0.116938 4.02127
head 2.47327 0.709284 1.69133
rclavicle -8.06072e-014 -7.45443e-015
rhumerus -58.0617 -6.2423 -78.7945
rradius 54.8152
rwrist -18.6168
rhand -31.6618 0.292567
rfingers 7.12502
rthumb -4.9222 -29.6303
lclavicle -8.06072e-014 -7.45443e-015
lhumerus -21.2929 -10.1778 95.3402
lradius 101.621
lwrist 12.2813
lhand -22.329 -10.2151
lfingers 7.12502
lthumb 4.09104 19.7253
rfemur -81.9338 -13.9105 18.5962
rtibia 84.0422
rfoot -20.7872 -8.75755
rtoes -38.2945
lfemur -9.51231 -2.2748 -27.8199
ltibia 51.0276
lfoot -36.3086 -14.3943
ltoes -6.12915
313
root 0.441294 15.1387 -23.3882 -159.736 -4.42962 170.721
lowerback 22.2095 -3.52191 -5.71524
upperback 0.3292 -6.47369 -0.535509
thorax -11.5114 -2.82981 4.68833
lowerneck -20.7936 -0.937943 -1.88781
upperneck -3.35074 0.115787 4.01567
head 2.52611 0.700627 1.70942
rclavicle -6.81086e-014 -1.32192e-014
rhumerus -61.1119 -5.43188 -78.2675
rradius 56.7214
rwrist -18.6587
rhand -31.6352 1.17878
rfingers 7.12502
rthumb -4.8965 -28.7446
lclavicle -6.81086e-014 -1.32192e-014
lhumerus -19.5473 -10.199 95.5301
lradius 105.421
lwrist 12.9699
lhand -22.509 -10.3317
lfingers 7.12502
lthumb 3.91721 19.612
rfemur -83.6757 -14.0343 18.9516
rtibia 83.9336
rfoot -20.1391 -8.31971
rtoes -38.8293
lfemur -7.97173 -2.49733 -27.5669
ltibia 49.5403
lfoot -36.4776 -14.777
ltoes -5.58845
314
root 0.456707 15.0738 -23.6554 -159.519 -4.68149 170.702
lowerback 22.2067 -3.67257 -5.46975
upperback 0.24394 -6.58568 -0.425054
thorax -11.6072 -2.87958 4.71053
lowerneck -20.7829 -0.908225 -1.96681
upperneck -3.17672 0.144604 3.94997
head 2.5848 0.702033 1.706
rclavicle 3.69243e-014 4.87022e-015
rhumerus -64.3214 -4.4037 -77.9446
rradius 59.0047
rwrist -18.7131
rhand -31.4582 2.11981
rfingers 7.12502
rthumb -4.72557 -27.8075
lclavicle 3.69243e-014 4.87022e-015
lhumerus -17.7885 -10.2943 95.6617
lradius 109.279
lwrist 13.6956
lhand -22.6711 -10.4454
lfingers 7.12502
lthumb 3.7607 19.5012
rfemur -85.1146 -14.2043 19.3318
rtibia 83.8787
rfoot -19.4112 -7.8179
rtoes -39.3064
lfemur -6.30582 -2.76706 -27.323
ltibia 47.8184
lfoot -36.4446 -15.0448
ltoes -5.32693
315
root 0.472605 15.0143 -23.9346 -159.299 -4.94061 170.68
lowerback 22.1763 -3.84005 -5.21981
upperback 0.13907 -6.71238 -0.290619
thorax -11.7065 -2.93442 4.75984
lowerneck -20.7432 -0.845382 -2.02317
upperneck -2.99179 0.209913 3.81927
head 2.64025 0.716246 1.67918
rclavicle 4.32667e-014 -3.60297e-015
rhumerus -67.604 -3.21189 -77.8269
rradius 61.5131
rwrist -18.7995
rhand -31.1515 3.13374
rfingers 7.12502
rthumb -4.42943 -26.7999
lclavicle 4.32667e-014 -3.60297e-015
lhumerus -16.0805 -10.4489 95.694
lradius 113.162
lwrist 14.4442
lhand -22.8317 -10.5248
lfingers 7.12502
lthumb 3.60559 19.4245
rfemur -86.3895 -14.4107 19.7341
rtibia 84.006
rfoot -18.5328 -7.2735
rtoes -39.6669
lfemur -4.57384 -3.11856 -27.1013
ltibia 45.9761
lfoot -36.1801 -15.1798
ltoes -5.56433
316
root 0.488646 14.962 -24.2262 -159.076 -5.20551 170.661
lowerback 22.1148 -4.03203 -4.9598
upperback 0.0229373 -6.86308 -0.131692
thorax -11.7971 -3.00022 4.83559
lowerneck -20.6982 -0.744021 -2.05824
upperneck -2.78795 0.320376 3.62805
head 2.69947 0.74839 1.63194
rclavicle -5.49081e-014 2.3643e-014
rhumerus -70.862 -1.91162 -77.9028
rradius 64.0941
rwrist -18.9215
rhand -30.7596 4.23793
rfingers 7.12502
rthumb -4.05098 -25.7033
lclavicle -5.49081e-014 2.3643e-014
lhumerus -14.4885 -10.6456 95.5835
lradius 117.03
lwrist 15.2089
lhand -23.006 -10.5831
lfingers 7.12502
lthumb 3.43729 19.369
rfemur -87.4706 -14.6516 20.1619
rtibia 84.3037
rfoot -17.4728 -6.71532
rtoes -39.8649
lfemur -2.77826 -3.5848 -26.9062
ltibia 43.9923
lfoot -35.5636 -15.2007
ltoes -6.31934
317
root 0.504899 14.9181 -24.5301 -158.835 -5.46168 170.653
lowerback 22.0041 -4.24487 -4.68933
upperback -0.107626 -7.03203 0.0524176
thorax -11.8732 -3.0746 4.93477
lowerneck -20.6467 -0.609153 -2.0831
upperneck -2.56673 0.472134 3.3905
head 2.76232 0.797348 1.57085
rclavicle 4.23411e-014 8.69683e-015
rhumerus -74.0278 -0.568511 -78.1369
rradius 66.6166
rwrist -19.0548
rhand -30.2846 5.34509
rfingers 7.12502
rthumb -3.59234 -24.6044
lclavicle 4.23411e-014 8.69683e-015
lhumerus -13.0887 -10.8918 95.3094
lradius 120.824
lwrist 15.9213
lhand -23.2126 -10.582
lfingers 7.12502
lthumb 3.23775 19.3731
rfemur -88.3525 -14.9023 20.6179
rtibia 84.7887
rfoot -16.2608 -6.18907
rtoes -39.8672
lfemur -1.00537 -4.1851 -26.741
ltibia 41.9904
lfoot -34.5541 -15.1292
ltoes -7.61299
